<svg xmlns="http://www.w3.org/2000/svg" version="1.1" viewBox="1.4474750757217407 1.6600000858306885 758.0357055664062 722.860107421875" width="761.00" height="726.00">
<g stroke-width="2.00" fill="none" stroke-linecap="butt">
<path stroke="#56988b" d="&#10;  M 477.33 349.28&#10;  Q 471.70 334.96 464.91 321.62"/>
<path stroke="#56988b" d="&#10;  M 302.73 322.52&#10;  Q 298.24 332.04 293.94 342.27&#10;  Q 293.90 342.37 290.59 349.40&#10;  Q 288.76 353.28 287.72 357.47"/>
<path stroke="#5e5e5e" d="&#10;  M 535.75 374.17&#10;  Q 535.74 375.16 536.33 375.52&#10;  Q 536.75 375.76 536.94 376.21&#10;  Q 537.18 376.77 537.04 377.32&#10;  Q 536.92 377.78 537.16 378.20&#10;  Q 540.58 384.43 536.53 387.81"/>
<path stroke="#5e5e5e" d="&#10;  M 311.29 373.31&#10;  Q 310.49 373.50 310.04 373.24&#10;  Q 309.89 373.16 309.20 372.18&#10;  Q 308.97 371.84 308.95 371.48&#10;  Q 308.93 371.07 308.58 370.85&#10;  Q 307.92 370.45 308.10 369.77&#10;  Q 308.25 369.23 307.69 369.12&#10;  L 306.75 368.94"/>
<path stroke="#737373" d="&#10;  M 306.75 368.94&#10;  Q 308.56 368.72 310.01 367.89&#10;  Q 310.40 367.67 310.20 367.50&#10;  Q 310.04 367.36 309.53 367.28"/>
<path stroke="#5e5e5e" d="&#10;  M 309.53 367.28&#10;  L 310.37 367.16&#10;  Q 310.84 367.09 310.99 366.64&#10;  L 311.68 364.51"/>
<path stroke="#696969" d="&#10;  M 309.53 367.28&#10;  Q 299.02 369.10 289.29 373.38&#10;  Q 287.37 374.22 284.92 374.14&#10;  A 0.73 0.73 0.0 0 0 284.19 375.07&#10;  L 285.10 378.32&#10;  Q 285.38 379.31 285.87 378.41&#10;  Q 286.20 377.83 286.08 377.19&#10;  A 1.11 1.10 72.3 0 1 286.70 375.98&#10;  Q 296.68 371.29 306.75 368.94"/>
<path stroke="#696969" d="&#10;  M 220.95 516.77&#10;  Q 219.19 515.61 218.45 514.14&#10;  A 1.19 1.19 0.0 0 0 216.31 514.18&#10;  Q 214.12 519.03 213.38 523.76&#10;  Q 212.82 527.38 211.89 530.69&#10;  C 211.16 533.30 211.62 535.83 212.55 538.25&#10;  C 213.88 541.69 214.14 545.49 215.77 548.74&#10;  Q 216.36 549.92 216.14 551.49&#10;  Q 215.86 553.44 217.44 553.45"/>
<path stroke="#696969" d="&#10;  M 216.4172 531.3524&#10;  A 1.06 0.80 -4.2 0 0 215.3014 530.6321&#10;  A 1.06 0.80 -4.2 0 0 214.3028 531.5076&#10;  A 1.06 0.80 -4.2 0 0 215.4186 532.2279&#10;  A 1.06 0.80 -4.2 0 0 216.4172 531.3524"/>
</g>
<path fill="#7d7d7e" d="&#10;  M 477.33 349.28&#10;  Q 471.70 334.96 464.91 321.62&#10;  Q 459.31 309.99 454.21 298.74&#10;  Q 449.79 289.01 445.92 279.04&#10;  C 443.91 273.88 441.25 269.32 439.37 264.36&#10;  Q 437.29 258.89 434.74 253.25&#10;  Q 426.76 235.61 417.43 213.76&#10;  Q 416.56 211.73 415.73 209.81&#10;  Q 408.89 193.95 401.50 177.73&#10;  C 399.48 173.28 397.95 168.75 395.85 164.30&#10;  Q 391.86 155.83 388.14 147.25&#10;  C 387.01 144.63 386.22 141.75 385.22 139.03&#10;  Q 384.78 137.83 384.39 139.05&#10;  C 382.74 144.18 381.08 148.60 378.82 153.52&#10;  C 375.50 160.73 372.85 167.49 369.10 175.17&#10;  Q 366.79 179.88 364.31 185.51&#10;  Q 354.17 208.52 344.15 231.85&#10;  Q 342.70 235.24 341.54 237.74&#10;  Q 330.82 260.93 320.61 283.70&#10;  Q 312.04 302.83 302.73 322.52&#10;  Q 298.24 332.04 293.94 342.27&#10;  Q 293.90 342.37 290.59 349.40&#10;  Q 288.76 353.28 287.72 357.47&#10;  Q 279.25 359.93 271.09 364.32&#10;  C 265.34 367.42 260.21 376.49 258.21 381.68&#10;  Q 255.59 388.44 253.02 395.70&#10;  Q 251.77 399.20 249.64 401.57&#10;  Q 248.74 402.58 247.09 402.46&#10;  C 243.33 402.17 239.55 401.58 235.78 401.57&#10;  C 226.55 401.55 217.65 401.11 208.37 401.47&#10;  C 199.67 401.82 191.77 402.96 184.25 407.00&#10;  Q 181.83 408.30 180.53 411.83&#10;  Q 180.37 412.27 180.51 412.71&#10;  Q 181.10 414.63 181.97 416.46&#10;  C 182.76 418.13 182.95 419.99 183.35 421.74&#10;  A 0.64 0.64 0.0 0 1 182.72 422.52&#10;  L 180.74 422.53&#10;  A 0.52 0.52 0.0 0 0 180.24 423.18&#10;  Q 181.60 428.51 183.43 432.02&#10;  C 185.82 436.62 188.15 442.42 191.92 445.96&#10;  C 195.74 449.54 200.48 451.97 205.70 452.51&#10;  C 208.86 452.83 211.81 453.66 215.00 453.49&#10;  Q 216.99 453.39 218.88 453.72&#10;  Q 219.44 453.82 219.49 454.40&#10;  Q 219.99 461.32 217.60 467.73&#10;  C 213.56 478.56 206.94 487.51 202.23 497.51&#10;  Q 200.31 501.60 197.67 510.92&#10;  Q 195.68 517.94 194.87 524.76&#10;  Q 193.81 533.75 193.44 543.14&#10;  C 193.13 550.95 192.47 558.59 192.23 566.51&#10;  C 192.17 568.43 191.64 570.33 191.66 572.23&#10;  Q 191.74 578.38 191.22 584.00&#10;  Q 190.67 590.12 190.36 595.79&#10;  Q 189.91 604.04 189.32 612.00&#10;  Q 188.74 619.87 186.57 625.95&#10;  Q 183.32 635.05 179.29 643.70&#10;  Q 176.95 648.72 175.16 653.86&#10;  C 173.54 658.48 171.24 662.77 169.45 667.26&#10;  Q 158.32 695.31 146.46 723.73&#10;  A 1.29 1.29 0.0 0 1 145.27 724.52&#10;  L 1.98 724.52&#10;  A 0.53 0.53 0.0 0 1 1.50 723.76&#10;  C 8.73 708.38 15.15 693.14 22.01 677.84&#10;  Q 33.07 653.17 44.26 627.93&#10;  Q 48.34 618.72 52.48 609.69&#10;  Q 64.40 583.69 75.93 557.87&#10;  Q 79.92 548.92 84.18 539.65&#10;  C 90.35 526.20 96.00 512.90 101.97 499.66&#10;  Q 131.72 433.66 161.49 367.94&#10;  C 168.48 352.51 175.29 337.01 182.37 321.62&#10;  Q 186.56 312.53 190.55 303.38&#10;  Q 199.88 281.95 209.74 260.75&#10;  C 213.28 253.12 216.52 245.36 220.20 237.57&#10;  C 226.47 224.30 232.26 210.44 238.70 197.09&#10;  C 241.77 190.72 244.27 184.24 247.30 177.75&#10;  Q 257.28 156.31 267.19 134.36&#10;  Q 270.23 127.62 273.38 121.16&#10;  C 276.42 114.92 278.79 108.38 281.80 102.09&#10;  C 288.66 87.76 295.13 72.85 301.65 58.58&#10;  Q 314.56 30.36 327.43 2.93&#10;  A 2.21 2.19 12.4 0 1 329.43 1.66&#10;  L 448.79 1.71&#10;  A 2.34 2.33 77.9 0 1 450.92 3.09&#10;  Q 458.65 20.37 466.28 37.84&#10;  Q 470.64 47.85 474.48 56.09&#10;  C 479.46 66.75 483.70 77.27 488.52 87.67&#10;  Q 499.63 111.58 510.41 136.14&#10;  Q 514.56 145.59 518.57 154.38&#10;  Q 534.77 189.92 547.00 218.24&#10;  Q 551.61 228.95 555.30 236.93&#10;  Q 559.59 246.23 563.47 255.19&#10;  C 570.69 271.86 578.28 288.48 585.42 305.26&#10;  C 588.38 312.20 591.73 319.02 594.61 325.73&#10;  Q 601.55 341.84 609.28 359.94&#10;  Q 610.31 362.35 611.34 364.67&#10;  Q 618.92 381.71 627.31 403.39&#10;  Q 627.58 404.07 626.85 403.94&#10;  Q 610.28 400.88 590.45 401.34&#10;  Q 581.93 401.54 577.05 402.81&#10;  Q 573.93 403.62 571.00 406.10&#10;  A 1.16 1.16 0.0 0 1 569.12 405.50&#10;  C 567.43 398.88 565.71 392.59 562.31 386.46&#10;  C 560.61 383.39 559.58 380.13 558.16 376.98&#10;  C 554.28 368.37 545.23 364.82 537.78 360.27&#10;  C 534.36 358.18 529.86 356.98 525.79 356.43&#10;  Q 515.98 355.10 506.20 353.09&#10;  Q 499.42 351.70 491.78 350.84&#10;  Q 484.62 350.04 477.33 349.28&#10;  Z"/>
<path fill="#2eb398" d="&#10;  M 464.91 321.62&#10;  Q 471.70 334.96 477.33 349.28&#10;  Q 451.28 346.43 429.85 345.85&#10;  Q 409.46 345.30 377.34 345.73&#10;  C 375.51 345.76 373.74 346.25 371.93 346.33&#10;  Q 363.09 346.71 353.81 347.24&#10;  Q 344.81 347.75 335.72 348.77&#10;  Q 317.96 350.74 310.75 351.98&#10;  Q 306.07 352.78 287.72 357.47&#10;  Q 288.76 353.28 290.59 349.40&#10;  Q 293.90 342.37 293.94 342.27&#10;  Q 298.24 332.04 302.73 322.52&#10;  Q 380.78 322.21 458.50 322.33&#10;  Q 461.48 322.33 464.91 321.62&#10;  Z"/>
<path fill="#686868" d="&#10;  M 535.75 374.17&#10;  Q 535.74 375.16 536.33 375.52&#10;  Q 536.75 375.76 536.94 376.21&#10;  Q 537.18 376.77 537.04 377.32&#10;  Q 536.92 377.78 537.16 378.20&#10;  Q 540.58 384.43 536.53 387.81&#10;  C 529.11 381.28 521.15 378.58 511.76 375.92&#10;  C 507.40 374.69 502.96 374.15 498.49 373.36&#10;  Q 493.74 372.51 488.45 372.11&#10;  Q 474.40 371.04 460.76 371.09&#10;  C 459.49 371.09 458.08 370.70 456.75 370.68&#10;  Q 430.84 370.36 403.42 370.09&#10;  C 393.33 369.99 377.47 369.14 365.75 369.76&#10;  Q 354.38 370.35 348.50 370.22&#10;  Q 340.55 370.04 311.29 373.31&#10;  Q 310.49 373.50 310.04 373.24&#10;  Q 309.89 373.16 309.20 372.18&#10;  Q 308.97 371.84 308.95 371.48&#10;  Q 308.93 371.07 308.58 370.85&#10;  Q 307.92 370.45 308.10 369.77&#10;  Q 308.25 369.23 307.69 369.12&#10;  L 306.75 368.94&#10;  Q 308.56 368.72 310.01 367.89&#10;  Q 310.40 367.67 310.20 367.50&#10;  Q 310.04 367.36 309.53 367.28&#10;  L 310.37 367.16&#10;  Q 310.84 367.09 310.99 366.64&#10;  L 311.68 364.51&#10;  Q 332.68 361.90 353.74 361.16&#10;  Q 355.42 361.10 357.09 360.91&#10;  Q 359.10 360.67 361.09 360.66&#10;  Q 394.96 360.55 429.88 360.74&#10;  Q 439.76 360.79 449.98 361.24&#10;  Q 459.75 361.68 470.24 362.01&#10;  Q 471.73 362.05 473.25 362.12&#10;  Q 494.90 363.06 499.00 363.80&#10;  Q 505.64 365.00 512.98 366.53&#10;  Q 524.92 369.01 535.75 374.17&#10;  Z"/>
<path fill="#545454" d="&#10;  M 311.68 364.51&#10;  L 310.99 366.64&#10;  Q 310.84 367.09 310.37 367.16&#10;  L 309.53 367.28&#10;  Q 299.02 369.10 289.29 373.38&#10;  Q 287.37 374.22 284.92 374.14&#10;  A 0.73 0.73 0.0 0 0 284.19 375.07&#10;  L 285.10 378.32&#10;  Q 285.38 379.31 285.87 378.41&#10;  Q 286.20 377.83 286.08 377.19&#10;  A 1.11 1.10 72.3 0 1 286.70 375.98&#10;  Q 296.68 371.29 306.75 368.94&#10;  L 307.69 369.12&#10;  Q 308.25 369.23 308.10 369.77&#10;  Q 307.92 370.45 308.58 370.85&#10;  Q 308.93 371.07 308.95 371.48&#10;  Q 308.97 371.84 309.20 372.18&#10;  Q 309.89 373.16 310.04 373.24&#10;  Q 310.49 373.50 311.29 373.31&#10;  Q 307.05 374.65 302.79 375.49&#10;  Q 300.98 375.84 299.29 376.28&#10;  C 296.23 377.08 293.31 379.04 290.49 380.51&#10;  C 286.97 382.34 282.86 385.90 281.11 389.14&#10;  Q 276.56 397.61 271.84 409.06&#10;  C 270.39 412.57 269.55 416.18 268.00 419.69&#10;  Q 262.78 431.54 259.18 443.99&#10;  Q 258.88 445.05 259.96 445.22&#10;  Q 261.73 445.49 263.47 445.61&#10;  C 267.68 445.90 272.05 444.61 276.30 444.36&#10;  Q 299.10 442.98 314.98 441.18&#10;  Q 317.13 440.94 319.01 440.81&#10;  Q 338.74 439.47 360.50 439.01&#10;  Q 362.03 438.97 363.75 438.93&#10;  Q 405.93 437.95 448.00 438.80&#10;  C 448.87 438.82 449.93 439.21 450.91 439.22&#10;  Q 469.18 439.39 484.54 439.82&#10;  C 488.16 439.92 491.79 440.32 495.43 440.52&#10;  Q 499.26 440.73 503.55 441.24&#10;  Q 513.45 442.41 522.80 442.75&#10;  C 526.53 442.88 530.28 443.49 534.09 443.64&#10;  Q 538.07 443.80 542.71 444.42&#10;  Q 551.12 445.53 559.95 445.91&#10;  A 0.80 0.80 0.0 0 0 560.70 444.76&#10;  C 559.12 441.53 558.52 438.05 557.27 434.75&#10;  Q 551.75 420.11 546.02 405.03&#10;  Q 544.13 400.04 539.24 393.01&#10;  Q 538.41 391.82 536.53 387.81&#10;  Q 540.58 384.43 537.16 378.20&#10;  Q 536.92 377.78 537.04 377.32&#10;  Q 537.18 376.77 536.94 376.21&#10;  Q 536.75 375.76 536.33 375.52&#10;  Q 535.74 375.16 535.75 374.17&#10;  C 543.62 379.00 549.29 387.11 551.13 396.02&#10;  C 551.70 398.79 552.94 401.32 553.81 404.03&#10;  Q 558.55 418.91 562.75 433.54&#10;  A 0.92 0.91 -41.6 0 0 564.47 433.64&#10;  Q 564.93 432.55 565.74 431.83&#10;  Q 568.28 429.55 570.14 427.19&#10;  C 573.77 422.60 576.09 419.67 579.86 416.67&#10;  C 581.90 415.04 584.86 414.53 587.45 414.44&#10;  Q 604.71 413.79 620.87 415.65&#10;  C 623.18 415.91 626.27 416.47 626.45 419.50&#10;  Q 626.63 422.46 626.93 425.85&#10;  Q 627.20 428.94 626.32 431.20&#10;  C 624.90 434.86 622.10 436.25 618.59 437.43&#10;  Q 616.36 438.18 614.03 438.44&#10;  Q 608.01 439.11 601.83 439.41&#10;  Q 599.85 439.50 597.25 441.25&#10;  C 595.59 442.38 593.72 442.98 591.78 443.44&#10;  C 589.06 444.07 586.54 446.70 584.59 448.94&#10;  C 582.45 451.38 582.92 455.59 583.75 458.38&#10;  Q 587.60 471.20 592.67 481.36&#10;  Q 596.23 488.49 599.26 496.18&#10;  C 599.98 498.00 601.66 499.17 602.66 500.92&#10;  Q 605.65 506.14 607.10 510.93&#10;  C 608.23 514.66 609.92 518.40 610.44 522.23&#10;  C 611.51 530.15 612.25 538.05 613.12 545.51&#10;  C 613.61 549.72 613.49 553.83 613.98 558.01&#10;  Q 614.25 560.35 614.27 562.99&#10;  Q 614.66 607.95 614.29 657.99&#10;  Q 614.28 659.56 614.19 661.24&#10;  A 0.47 0.47 0.0 0 1 613.72 661.68&#10;  L 549.61 661.73&#10;  A 1.12 1.12 0.0 0 1 548.49 660.61&#10;  L 548.44 616.08&#10;  Q 548.44 615.48 549.04 615.48&#10;  L 599.97 615.42&#10;  Q 601.40 615.42 601.39 613.99&#10;  Q 601.31 583.27 601.19 552.54&#10;  C 601.19 551.50 600.89 550.46 600.99 549.41&#10;  Q 602.21 537.64 601.61 527.48&#10;  Q 601.26 521.57 598.70 513.59&#10;  Q 594.92 501.82 587.93 491.19&#10;  C 585.04 486.79 581.16 483.16 577.66 479.22&#10;  Q 574.01 475.10 566.26 470.87&#10;  C 564.03 469.66 561.65 470.74 559.68 471.74&#10;  Q 549.10 477.10 539.24 481.56&#10;  Q 531.79 484.93 514.10 489.46&#10;  C 498.62 493.42 483.00 494.52 466.91 494.76&#10;  C 464.87 494.79 462.86 495.17 460.80 495.19&#10;  Q 420.93 495.46 374.93 495.21&#10;  C 372.56 495.20 370.21 494.63 367.86 494.65&#10;  Q 355.97 494.73 347.46 494.23&#10;  Q 330.19 493.21 310.93 490.62&#10;  C 303.74 489.66 297.25 488.00 290.48 486.47&#10;  Q 286.73 485.63 283.18 484.29&#10;  C 279.90 483.05 276.48 482.38 273.09 481.14&#10;  C 265.38 478.32 259.80 474.23 253.12 470.40&#10;  A 2.85 2.84 -52.5 0 0 249.70 470.85&#10;  Q 246.53 473.99 242.82 477.34&#10;  Q 229.99 488.91 224.33 505.01&#10;  Q 222.90 509.08 220.95 516.77&#10;  Q 219.19 515.61 218.45 514.14&#10;  A 1.19 1.19 0.0 0 0 216.31 514.18&#10;  Q 214.12 519.03 213.38 523.76&#10;  Q 212.82 527.38 211.89 530.69&#10;  C 211.16 533.30 211.62 535.83 212.55 538.25&#10;  C 213.88 541.69 214.14 545.49 215.77 548.74&#10;  Q 216.36 549.92 216.14 551.49&#10;  Q 215.86 553.44 217.44 553.45&#10;  Q 217.68 557.02 217.27 560.51&#10;  Q 216.69 565.47 216.67 567.51&#10;  C 216.62 572.22 216.68 576.90 216.18 581.57&#10;  C 215.93 583.97 216.34 586.28 216.13 588.71&#10;  Q 215.42 596.97 215.23 604.71&#10;  C 215.15 607.89 215.96 610.83 215.53 614.07&#10;  Q 215.32 615.69 216.95 615.67&#10;  Q 243.08 615.32 266.83 615.76&#10;  Q 267.68 615.78 267.68 616.62&#10;  Q 267.77 634.09 267.81 653.25&#10;  Q 267.81 656.35 268.20 659.26&#10;  A 0.89 0.89 0.0 0 1 267.32 660.26&#10;  L 202.11 660.28&#10;  A 0.63 0.62 1.3 0 1 201.48 659.63&#10;  Q 201.87 650.97 201.72 641.32&#10;  C 201.68 638.51 202.47 635.84 202.43 633.06&#10;  Q 202.25 620.30 202.96 608.26&#10;  Q 203.05 606.82 203.13 605.25&#10;  Q 203.38 600.18 203.57 595.77&#10;  Q 203.75 591.62 204.31 586.30&#10;  Q 204.82 581.48 204.79 574.25&#10;  C 204.78 573.17 205.25 572.03 205.26 570.90&#10;  Q 205.28 561.55 205.98 552.90&#10;  Q 206.41 547.50 206.85 542.16&#10;  Q 207.85 530.09 210.59 518.03&#10;  Q 214.23 502.00 222.42 490.14&#10;  C 225.83 485.21 228.20 479.71 230.89 474.40&#10;  C 235.13 466.04 236.98 453.31 231.39 445.20&#10;  Q 227.30 439.27 219.86 440.34&#10;  Q 213.66 441.23 206.61 439.21&#10;  C 203.57 438.34 200.52 435.31 198.58 433.05&#10;  C 195.05 428.94 195.03 423.77 195.61 418.66&#10;  A 2.32 2.31 85.7 0 1 197.30 416.69&#10;  C 200.79 415.74 204.28 414.71 207.94 414.67&#10;  Q 220.87 414.55 233.29 414.65&#10;  C 237.21 414.67 241.27 415.41 244.57 417.59&#10;  Q 246.59 418.91 247.95 421.88&#10;  C 249.65 425.59 251.81 429.55 252.42 433.63&#10;  Q 252.53 434.36 253.07 433.86&#10;  Q 256.49 430.69 257.78 428.17&#10;  Q 262.28 419.44 263.49 410.55&#10;  C 264.97 399.65 269.68 385.74 277.30 377.82&#10;  Q 279.15 375.91 282.08 374.22&#10;  Q 295.80 366.31 311.68 364.51&#10;  Z"/>
<path fill="#7d7d7e" d="&#10;  M 309.53 367.28&#10;  Q 310.04 367.36 310.20 367.50&#10;  Q 310.40 367.67 310.01 367.89&#10;  Q 308.56 368.72 306.75 368.94&#10;  Q 296.68 371.29 286.70 375.98&#10;  A 1.11 1.10 72.3 0 0 286.08 377.19&#10;  Q 286.20 377.83 285.87 378.41&#10;  Q 285.38 379.31 285.10 378.32&#10;  L 284.19 375.07&#10;  A 0.73 0.73 0.0 0 1 284.92 374.14&#10;  Q 287.37 374.22 289.29 373.38&#10;  Q 299.02 369.10 309.53 367.28&#10;  Z"/>
<path fill="#2eb398" d="&#10;  M 638.00 433.21&#10;  Q 639.25 429.76 640.43 426.20&#10;  Q 640.86 424.92 641.00 426.27&#10;  Q 641.52 431.16 643.13 436.42&#10;  Q 645.59 444.48 647.95 450.98&#10;  C 652.76 464.19 660.86 482.50 667.28 498.28&#10;  Q 674.19 515.25 681.45 533.26&#10;  Q 685.01 542.08 689.21 551.71&#10;  Q 694.35 563.52 698.25 573.08&#10;  Q 718.33 622.25 738.67 671.86&#10;  C 741.51 678.78 744.70 685.59 747.13 692.58&#10;  C 748.43 696.31 749.61 699.72 751.34 703.35&#10;  Q 756.12 713.37 759.47 723.87&#10;  A 0.25 0.25 0.0 0 1 759.23 724.20&#10;  L 608.98 724.29&#10;  A 2.05 2.05 0.0 0 1 607.06 722.96&#10;  Q 599.89 703.91 593.10 687.01&#10;  Q 590.92 681.57 588.66 676.75&#10;  A 0.79 0.79 0.0 0 1 589.37 675.62&#10;  Q 607.20 675.42 624.18 675.59&#10;  C 627.41 675.62 627.59 671.74 628.00 669.43&#10;  Q 628.28 667.88 628.28 666.34&#10;  Q 628.52 604.78 628.25 569.50&#10;  C 628.23 567.13 627.76 564.88 627.74 562.52&#10;  Q 627.62 552.23 626.78 542.14&#10;  Q 626.16 534.76 624.66 527.38&#10;  Q 623.17 520.05 621.79 513.62&#10;  Q 620.65 508.31 617.36 501.30&#10;  C 613.54 493.15 610.16 484.79 606.12 476.74&#10;  Q 604.00 472.50 601.69 467.99&#10;  C 599.97 464.63 599.12 461.21 598.86 457.49&#10;  A 0.91 0.89 -16.5 0 1 599.34 456.62&#10;  Q 605.79 453.28 612.95 451.86&#10;  Q 618.87 450.68 623.17 449.10&#10;  C 629.69 446.71 635.49 440.17 638.00 433.21&#10;  Z"/>
<path fill="#7d7d7e" d="&#10;  M 220.95 516.77&#10;  Q 219.91 520.90 218.95 524.98&#10;  C 218.39 527.33 218.72 530.07 218.57 532.06&#10;  Q 218.12 537.93 218.16 543.84&#10;  C 218.18 546.94 217.45 550.18 217.44 553.45&#10;  Q 215.86 553.44 216.14 551.49&#10;  Q 216.36 549.92 215.77 548.74&#10;  C 214.14 545.49 213.88 541.69 212.55 538.25&#10;  C 211.62 535.83 211.16 533.30 211.89 530.69&#10;  Q 212.82 527.38 213.38 523.76&#10;  Q 214.12 519.03 216.31 514.18&#10;  A 1.19 1.19 0.0 0 1 218.45 514.14&#10;  Q 219.19 515.61 220.95 516.77&#10;  Z&#10;  M 216.4172 531.3524&#10;  A 1.06 0.80 -4.2 0 0 215.3014 530.6321&#10;  A 1.06 0.80 -4.2 0 0 214.3028 531.5076&#10;  A 1.06 0.80 -4.2 0 0 215.4186 532.2279&#10;  A 1.06 0.80 -4.2 0 0 216.4172 531.3524&#10;  Z"/>
<path fill="#545454" d="&#10;  M 312.67 534.49&#10;  C 312.09 530.57 315.17 522.24 319.27 519.87&#10;  Q 321.24 518.72 325.22 518.68&#10;  Q 411.06 517.88 493.42 518.47&#10;  Q 497.03 518.50 500.31 519.12&#10;  Q 501.65 519.37 501.81 520.72&#10;  Q 502.64 527.70 504.89 533.90&#10;  C 507.03 539.77 508.19 545.92 510.98 551.69&#10;  Q 511.37 552.51 510.46 552.52&#10;  Q 504.22 552.56 499.14 552.23&#10;  Q 491.06 551.71 487.84 551.68&#10;  C 476.61 551.56 464.92 551.24 453.75 551.29&#10;  Q 445.58 551.32 437.05 550.97&#10;  C 424.34 550.45 411.36 550.61 398.52 550.64&#10;  Q 389.46 550.66 378.53 551.01&#10;  Q 358.31 551.66 338.10 551.69&#10;  Q 334.20 551.70 329.92 552.07&#10;  Q 325.79 552.42 321.70 552.56&#10;  C 318.51 552.67 315.11 553.45 312.14 554.71&#10;  Q 309.96 555.64 311.38 553.74&#10;  Q 313.38 551.07 313.45 548.12&#10;  Q 313.62 540.89 312.67 534.49&#10;  Z"/>
<path fill="#545454" d="&#10;  M 309.88 525.80&#10;  L 309.98 524.15&#10;  A 0.32 0.32 0.0 0 1 310.14 523.89&#10;  L 312.17 522.78&#10;  A 0.32 0.32 0.0 0 1 312.57 523.26&#10;  L 310.45 526.02&#10;  A 0.32 0.32 0.0 0 1 309.88 525.80&#10;  Z"/>
<path fill="#545454" d="&#10;  M 232.43 525.53&#10;  C 238.00 529.08 244.51 531.73 250.16 534.77&#10;  Q 261.66 540.97 272.99 547.38&#10;  C 280.57 551.67 289.34 555.57 297.58 558.65&#10;  A 0.45 0.44 -70.3 0 1 297.84 559.21&#10;  Q 297.75 559.45 297.51 559.58&#10;  C 292.30 562.37 286.55 563.04 280.99 564.79&#10;  Q 275.72 566.44 269.49 567.28&#10;  Q 257.59 568.88 244.76 568.52&#10;  Q 242.43 568.45 240.41 567.48&#10;  Q 239.95 567.25 239.87 566.74&#10;  Q 238.90 560.00 237.46 554.32&#10;  C 235.07 544.86 233.57 535.48 231.48 526.19&#10;  A 0.63 0.62 10.1 0 1 232.43 525.53&#10;  Z"/>
<path fill="#545454" d="&#10;  M 533.97 561.81&#10;  Q 531.46 561.08 529.14 559.92&#10;  A 1.63 1.63 0.0 0 1 528.98 557.09&#10;  Q 532.30 554.98 535.80 553.62&#10;  C 540.08 551.97 544.00 549.52 548.18 547.62&#10;  Q 551.37 546.16 554.24 544.51&#10;  Q 570.84 534.97 588.58 526.09&#10;  A 0.42 0.41 65.7 0 1 589.15 526.31&#10;  Q 589.38 526.90 589.31 527.56&#10;  Q 588.30 537.13 587.09 546.12&#10;  Q 586.28 552.20 584.33 556.80&#10;  Q 582.05 562.20 578.93 566.68&#10;  Q 576.60 570.02 572.67 569.56&#10;  Q 552.10 567.14 533.97 561.81&#10;  Z"/>
<ellipse fill="#545454" cx="0.00" cy="0.00" transform="translate(215.36,531.43) rotate(-4.2)" rx="1.06" ry="0.80"/>
<path fill="#545454" d="&#10;  M 485.23 576.89&#10;  C 494.98 579.86 500.35 587.38 506.57 594.88&#10;  C 509.86 598.85 512.32 603.11 514.91 607.42&#10;  C 516.55 610.13 519.44 612.02 520.34 615.14&#10;  Q 520.86 616.98 521.28 618.74&#10;  A 0.75 0.74 83.6 0 1 520.55 619.66&#10;  Q 424.76 619.49 324.40 619.68&#10;  Q 312.35 619.70 300.00 619.36&#10;  Q 298.38 619.31 296.99 618.78&#10;  A 0.60 0.60 0.0 0 1 296.75 617.83&#10;  Q 302.97 610.79 309.27 603.54&#10;  Q 313.51 598.66 317.45 593.72&#10;  Q 322.30 587.65 326.07 584.32&#10;  Q 328.96 581.76 333.69 578.83&#10;  C 337.05 576.76 338.82 575.83 343.00 575.77&#10;  Q 356.01 575.57 369.00 575.16&#10;  C 370.32 575.12 371.63 574.81 373.01 574.79&#10;  C 402.02 574.26 425.85 574.51 452.66 574.72&#10;  Q 459.33 574.77 465.80 575.28&#10;  Q 472.12 575.77 478.80 575.72&#10;  Q 481.33 575.70 485.23 576.89&#10;  Z"/>
</svg>